<?xml version="1.0" encoding="UTF-8"?>
<!DOCTYPE svg PUBLIC "-//W3C//DTD SVG 1.1//EN" "http://www.w3.org/Graphics/SVG/1.1/DTD/svg11.dtd">
<svg version="1.1" xmlns="http://www.w3.org/2000/svg" xmlns:xlink="http://www.w3.org/1999/xlink" x="0" y="0" width="250" height="280" viewBox="0, 0, 250, 280">
  <g id="figure_1">
    <path d="M101.091,140 L200.735,140" fill-opacity="0" stroke="#000000" stroke-width="1.5" stroke-linecap="square" stroke-linejoin="round" id="path24"/>
    <path d="M42.157,55.359 L101.091,140" fill-opacity="0" stroke="#000000" stroke-width="1.5" stroke-linecap="square" stroke-linejoin="round" id="path12"/>
    <path d="M42.158,234.857 L101.091,140" fill-opacity="0" stroke="#000000" stroke-width="1.5" stroke-linecap="square" stroke-linejoin="round" id="path15"/>
    <path d="M42.157,55.359 L200.735,140" fill-opacity="0" stroke="#000000" stroke-width="1.5" stroke-linecap="square" stroke-linejoin="round" id="path21"/>
    <path d="M42.157,234.857 L200.735,140" fill-opacity="0" stroke="#000000" stroke-width="1.5" stroke-linecap="square" stroke-linejoin="round" id="path24"/>
    <g id="g42">
      <path d="M51.292,97.359 L52.248,97.359 L52.6,103.561 L55.35,97.359 L56.448,97.359 L56.809,103.561 L59.529,97.359 L60.529,97.359 L57.287,104.65 L56.047,104.65 L55.711,98.57 L52.981,104.65 L51.74,104.65 z" fill="#000000" id="DejaVuSans-Oblique-87"/>
      <path d="M61.086,106.803 L62.213,106.803 L62.213,102.909 L60.986,103.156 L60.986,102.527 L62.207,102.281 L62.897,102.281 L62.897,106.803 L64.025,106.803 L64.025,107.384 L61.086,107.384 z" fill="#000000" id="DejaVuSans-49"/>
    </g>
    <g id="g97">
      <path d="M159.168,97.359 L160.124,97.359 L160.475,103.561 L163.225,97.359 L164.324,97.359 L164.685,103.561 L167.405,97.359 L168.405,97.359 L165.163,104.65 L163.922,104.65 L163.586,98.57 L160.857,104.65 L159.616,104.65 z" fill="#000000" id="DejaVuSans-Oblique-87"/>
      <path d="M169.436,106.803 L171.845,106.803 L171.845,107.384 L168.606,107.384 L168.606,106.803 Q168.998,106.396 169.677,105.712 Q170.356,105.026 170.53,104.827 Q170.861,104.455 170.992,104.197 Q171.125,103.939 171.125,103.689 Q171.125,103.282 170.839,103.026 Q170.554,102.769 170.095,102.769 Q169.771,102.769 169.41,102.882 Q169.05,102.995 168.64,103.224 L168.64,102.527 Q169.056,102.359 169.418,102.274 Q169.782,102.189 170.082,102.189 Q170.875,102.189 171.347,102.586 Q171.818,102.982 171.818,103.644 Q171.818,103.959 171.7,104.242 Q171.583,104.523 171.271,104.906 Q171.186,105.005 170.728,105.479 Q170.27,105.952 169.436,106.803 z" fill="#000000" id="DejaVuSans-50"/>
    </g>
    <g id="path113">
      <path d="M42.158,87.384 C51.037,87.384 59.553,83.947 65.831,77.831 C72.11,71.715 75.638,63.418 75.638,54.768 C75.638,46.118 72.11,37.821 65.831,31.705 C59.553,25.589 51.037,22.152 42.158,22.152 C33.279,22.152 24.762,25.589 18.484,31.705 C12.205,37.821 8.678,46.118 8.678,54.768 C8.678,63.418 12.205,71.715 18.484,77.831 C24.762,83.947 33.279,87.384 42.158,87.384 z" fill="#FFFFFF"/>
      <path d="M42.158,87.384 C51.037,87.384 59.553,83.947 65.831,77.831 C72.11,71.715 75.638,63.418 75.638,54.768 C75.638,46.118 72.11,37.821 65.831,31.705 C59.553,25.589 51.037,22.152 42.158,22.152 C33.279,22.152 24.762,25.589 18.484,31.705 C12.205,37.821 8.678,46.118 8.678,54.768 C8.678,63.418 12.205,71.715 18.484,77.831 C24.762,83.947 33.279,87.384 42.158,87.384 z" fill-opacity="0" stroke="#000000" stroke-width="1" stroke-linejoin="round"/>
    </g>
    <g id="path116">
      <path d="M42.158,267.848 C51.037,267.848 59.553,264.411 65.831,258.295 C72.11,252.179 75.638,243.882 75.638,235.232 C75.638,226.582 72.11,218.285 65.831,212.169 C59.553,206.053 51.037,202.616 42.158,202.616 C33.279,202.616 24.762,206.053 18.484,212.169 C12.205,218.285 8.678,226.582 8.678,235.232 C8.678,243.882 12.205,252.179 18.484,258.295 C24.762,264.411 33.279,267.848 42.158,267.848 z" fill="#FFFFFF"/>
      <path d="M42.158,267.848 C51.037,267.848 59.553,264.411 65.831,258.295 C72.11,252.179 75.638,243.882 75.638,235.232 C75.638,226.582 72.11,218.285 65.831,212.169 C59.553,206.053 51.037,202.616 42.158,202.616 C33.279,202.616 24.762,206.053 18.484,212.169 C12.205,218.285 8.678,226.582 8.678,235.232 C8.678,243.882 12.205,252.179 18.484,258.295 C24.762,264.411 33.279,267.848 42.158,267.848 z" fill-opacity="0" stroke="#000000" stroke-width="1" stroke-linejoin="round"/>
    </g>
    <g id="path119">
      <path d="M101.078,172.513 C109.957,172.513 118.473,169.076 124.751,162.96 C131.03,156.844 134.558,148.547 134.558,139.897 C134.558,131.247 131.03,122.95 124.751,116.834 C118.473,110.718 109.957,107.281 101.078,107.281 C92.199,107.281 83.682,110.718 77.404,116.834 C71.125,122.95 67.598,131.247 67.598,139.897 C67.598,148.547 71.125,156.844 77.404,162.96 C83.682,169.076 92.199,172.513 101.078,172.513 z" fill="#FFFFFF"/>
      <path d="M101.078,172.513 C109.957,172.513 118.473,169.076 124.751,162.96 C131.03,156.844 134.558,148.547 134.558,139.897 C134.558,131.247 131.03,122.95 124.751,116.834 C118.473,110.718 109.957,107.281 101.078,107.281 C92.199,107.281 83.682,110.718 77.404,116.834 C71.125,122.95 67.598,131.247 67.598,139.897 C67.598,148.547 71.125,156.844 77.404,162.96 C83.682,169.076 92.199,172.513 101.078,172.513 z" fill-opacity="0" stroke="#000000" stroke-width="1" stroke-linejoin="round"/>
    </g>
    <g id="path125">
      <path d="M199.998,172.616 C208.877,172.616 217.393,169.179 223.671,163.063 C229.95,156.947 233.478,148.65 233.478,140 C233.478,131.35 229.95,123.053 223.671,116.937 C217.393,110.821 208.877,107.384 199.998,107.384 C191.119,107.384 182.602,110.821 176.324,116.937 C170.045,123.053 166.518,131.35 166.518,140 C166.518,148.65 170.045,156.947 176.324,163.063 C182.602,169.179 191.119,172.616 199.998,172.616 z" fill="#FFFFFF"/>
      <path d="M199.998,172.616 C208.877,172.616 217.393,169.179 223.671,163.063 C229.95,156.947 233.478,148.65 233.478,140 C233.478,131.35 229.95,123.053 223.671,116.937 C217.393,110.821 208.877,107.384 199.998,107.384 C191.119,107.384 182.602,110.821 176.324,116.937 C170.045,123.053 166.518,131.35 166.518,140 C166.518,148.65 170.045,156.947 176.324,163.063 C182.602,169.179 191.119,172.616 199.998,172.616 z" fill-opacity="0" stroke="#000000" stroke-width="1" stroke-linejoin="round"/>
    </g>
    <g id="g135">
      <path d="M43.061,49.212 L38.039,54.575 L41.117,60.15 L39.054,60.15 L36.742,55.812 L32.717,60.15 L30.539,60.15 L35.92,54.387 L33.061,49.212 L35.12,49.212 L37.22,53.169 L40.883,49.212 z" fill="#000000" id="DejaVuSans-Oblique-120"/>
      <path d="M45.524,51.332 L47.779,51.332 L47.779,43.545 L45.324,44.037 L45.324,42.779 L47.766,42.287 L49.146,42.287 L49.146,51.332 L51.401,51.332 L51.401,52.494 L45.524,52.494 z" fill="#000000" id="DejaVuSans-49"/>
    </g>
    <g id="g142">
      <path d="M43.061,229.66 L38.039,235.023 L41.117,240.598 L39.054,240.598 L36.742,236.26 L32.717,240.598 L30.539,240.598 L35.92,234.835 L33.061,229.66 L35.12,229.66 L37.22,233.616 L40.883,229.66 z" fill="#000000" id="DejaVuSans-Oblique-120"/>
      <path d="M46.473,231.78 L51.292,231.78 L51.292,232.941 L44.813,232.941 L44.813,231.78 Q45.598,230.966 46.954,229.597 Q48.313,228.225 48.66,227.827 Q49.323,227.083 49.586,226.567 Q49.85,226.051 49.85,225.552 Q49.85,224.738 49.279,224.226 Q48.709,223.712 47.792,223.712 Q47.142,223.712 46.42,223.938 Q45.701,224.163 44.88,224.622 L44.88,223.227 Q45.714,222.892 46.438,222.721 Q47.164,222.551 47.766,222.551 Q49.352,222.551 50.294,223.345 Q51.237,224.137 51.237,225.462 Q51.237,226.092 51.001,226.657 Q50.767,227.219 50.144,227.984 Q49.973,228.184 49.056,229.131 Q48.142,230.078 46.473,231.78 z" fill="#000000" id="DejaVuSans-50"/>
    </g>
    <g id="g152">
      <path d="M106.21,138.892 L104.929,145.495 L103.123,145.495 L104.404,138.961 Q104.492,138.502 104.538,138.152 Q104.589,137.798 104.589,137.595 Q104.589,136.773 104.07,136.317 Q103.554,135.858 102.626,135.858 Q101.179,135.858 100.12,136.836 Q99.06,137.811 98.748,139.43 L97.567,145.495 L95.77,145.495 L98.729,130.298 L100.526,130.298 L99.363,136.277 Q100.048,135.358 101.11,134.827 Q102.176,134.295 103.348,134.295 Q104.795,134.295 105.589,135.077 Q106.385,135.858 106.385,137.273 Q106.385,137.623 106.342,138.023 Q106.298,138.423 106.21,138.892 z" fill="#000000" id="DejaVuSans-Oblique-104"/>
    </g>
    <g id="g170">
      <path d="M200.969,128.7 L202.413,128.7 L204.807,132.372 L203.447,132.372 L201.691,129.981 L199.932,132.372 L198.575,132.372 z M201.691,133.497 z" fill="#000000" id="DejaVuSans-770"/>
      <path d="M199.179,147.95 Q197.929,150.05 197.141,150.572 Q196.354,151.094 195.135,151.094 L193.719,151.094 L194.019,149.591 L195.057,149.591 Q195.807,149.591 196.335,149.181 Q196.863,148.772 197.516,147.578 L198.073,146.534 L195.651,135.997 L197.557,135.997 L199.373,144.375 L204.391,135.997 L206.276,135.997 z" fill="#000000" id="DejaVuSans-Oblique-121"/>
    </g>
  </g>
</svg>
